<svg width="32" height="32" viewBox="0 0 32 32" fill="none" xmlns="http://www.w3.org/2000/svg">
<rect width="32" height="32" rx="4" fill="#231E1B"/>
<path fill-rule="evenodd" clip-rule="evenodd" d="M7.0132 13.1513C7 13.6902 7 14.3021 7 15V17C7 19.8284 7 21.2426 7.87868 22.1213C8.75736 23 10.1716 23 13 23H19C21.8284 23 23.2426 23 24.1213 22.1213C25 21.2426 25 19.8284 25 17V15C25 14.3021 25 13.6902 24.9868 13.1513L16.9713 17.6044C16.3672 17.9399 15.6328 17.9399 15.0287 17.6044L7.0132 13.1513ZM7.24297 11.0297C7.32584 11.0505 7.4074 11.0824 7.48564 11.1258L16 15.856L24.5144 11.1258C24.5926 11.0824 24.6742 11.0505 24.757 11.0297C24.6271 10.5562 24.4276 10.1849 24.1213 9.87868C23.2426 9 21.8284 9 19 9H13C10.1716 9 8.75736 9 7.87868 9.87868C7.57245 10.1849 7.37294 10.5562 7.24297 11.0297Z" fill="white"/>
</svg>
